# xmcd
#
# Track frame offsets:
#	150
#	15383
#	33106
#	54200
#	70218
#	95455
#	115884
#	129607
#	147680
#	161146
#	168319
#	178083
#
# Disc length: 2517 seconds
#
# Revision: 0
# Processed by: cddbd v1.5.2PL0 Copyright (c) Steve Scherf et al.
# Submitted via: audiograbber 1.83.01
#
DISCID=a009d30c
DTITLE=Casey Thompson - Down The Road
DYEAR=2004
DGENRE=Country
TTITLE0=Down The Road
TTITLE1=Rodeo
TTITLE2=The Hat
TTITLE3=Punch My Ticket
TTITLE4=If I'm Lucky
TTITLE5=Unwilling Outlaw
TTITLE6=Tattoos
TTITLE7=$27 Ring
TTITLE8=Honky-Tonk Bar Fly
TTITLE9=Gettin' Started
TTITLE10=KOA Intro
TTITLE11=KOA Cantina
EXTD=
EXTT0=
EXTT1=
EXTT2=
EXTT3=
EXTT4=
EXTT5=
EXTT6=
EXTT7=
EXTT8=
EXTT9=
EXTT10=
EXTT11=
PLAYORDER=
